<?xml version="1.0" encoding="utf-8"?>
<!-- Generator: Adobe Illustrator 25.4.1, SVG Export Plug-In . SVG Version: 6.00 Build 0)  -->
<svg version="1.1" id="Calque_1" xmlns="http://www.w3.org/2000/svg" xmlns:xlink="http://www.w3.org/1999/xlink" x="0px" y="0px"
	 viewBox="0 0 258.4 75" style="enable-background:new 0 0 258.4 75;" xml:space="preserve">
<style type="text/css">
	.st0{fill:url(#SVGID_1_);}
	.st1{fill:url(#SVGID_00000182486952400069785190000014886535486265579151_);}
	
		.st2{fill:none;stroke:url(#SVGID_00000059303042916172098070000002631666761652826004_);stroke-width:0.567;stroke-miterlimit:5.0314;}
	.st3{fill:url(#SVGID_00000134955605256020681520000014314960447273499801_);}
	
		.st4{fill:none;stroke:url(#SVGID_00000031187501514671390180000014367457183956997772_);stroke-width:0.567;stroke-miterlimit:5.0314;}
	.st5{fill:#FFFFFF;}
</style>
<g>
	
		<linearGradient id="SVGID_1_" gradientUnits="userSpaceOnUse" x1="20.9527" y1="83.7962" x2="20.9527" y2="46.5438" gradientTransform="matrix(1.2579 0 0 -1.2579 3.3522 119.4748)">
		<stop  offset="0" style="stop-color:#A4C1FF"/>
		<stop  offset="1" style="stop-color:#0E78F9"/>
	</linearGradient>
	<path class="st0" d="M22.9,14.1c0.9,0,1.7,0,2.6,0h8.4c0.8,0,1.7,0,2.6,0c2.3,0,4.7,0,6.3,0.1C48.5,14.5,52.5,18,53,24
		c0.1,2.1,0.1,4.7,0.1,7.7v0c0,0.5,0,1.1,0,1.6v8.4c0,0.5,0,1.1,0,1.6c0,3,0,5.6-0.1,7.7c-0.5,5.9-4.5,9.4-10.3,9.8
		c-1.6,0.1-3.9,0.1-6.3,0.1c-0.9,0-1.7,0-2.6,0h-8.4c-0.8,0-1.7,0-2.6,0c-2.3,0-4.7,0-6.3-0.1C10.9,60.5,6.9,57,6.4,51
		c-0.1-2.1-0.1-4.7-0.1-7.7v0c0-0.5,0-1.1,0-1.6v-8.4c0-0.5,0-1.1,0-1.6v0c0-3,0-5.6,0.1-7.7c0.5-5.9,4.5-9.4,10.3-9.8
		C18.3,14.1,20.6,14.1,22.9,14.1z"/>
	<g>
		
			<linearGradient id="SVGID_00000143595899621903364080000005211825952552717222_" gradientUnits="userSpaceOnUse" x1="17.4281" y1="72.2346" x2="17.4281" y2="58.1891" gradientTransform="matrix(1.2579 0 0 -1.2579 3.3522 119.4748)">
			<stop  offset="0" style="stop-color:#FFFFFF"/>
			<stop  offset="1" style="stop-color:#C5D4F7"/>
		</linearGradient>
		<path style="fill:url(#SVGID_00000143595899621903364080000005211825952552717222_);" d="M13.9,30.8c0-1.2,1-2.2,2.2-2.2h15.1
			c3,0,5.5,2.4,5.5,5.5v10.1c0,1.2-1,2.2-2.2,2.2H19.4c-3,0-5.5-2.4-5.5-5.5V30.8z"/>
		
			<linearGradient id="SVGID_00000036931215774635776490000013050691478622172827_" gradientUnits="userSpaceOnUse" x1="17.4281" y1="72.2623" x2="17.4281" y2="58.1614" gradientTransform="matrix(1.2579 0 0 -1.2579 3.3522 119.4748)">
			<stop  offset="0" style="stop-color:#FFFFFF"/>
			<stop  offset="1" style="stop-color:#637ACA"/>
		</linearGradient>
		
			<path style="fill:none;stroke:url(#SVGID_00000036931215774635776490000013050691478622172827_);stroke-width:0.567;stroke-miterlimit:5.0314;" d="
			M16.1,28.9h15.1c2.9,0,5.2,2.3,5.2,5.2v10.1c0,1.1-0.9,1.9-1.9,1.9H19.4c-2.9,0-5.2-2.3-5.2-5.2V30.8C14.2,29.7,15,28.9,16.1,28.9
			z"/>
	</g>
	<g>
		
			<linearGradient id="SVGID_00000044862111665026574580000017607384628602059657_" gradientUnits="userSpaceOnUse" x1="30.5478" y1="72.0991" x2="30.5478" y2="58.2901" gradientTransform="matrix(1.2579 0 0 -1.2579 3.3522 119.4748)">
			<stop  offset="0" style="stop-color:#FFFFFF"/>
			<stop  offset="1" style="stop-color:#C5D4F7"/>
		</linearGradient>
		<path style="fill:url(#SVGID_00000044862111665026574580000017607384628602059657_);" d="M38,34.9c0-0.7,0.3-1.4,0.9-1.9l4.3-3.8
			c0.9-0.8,2.4-0.2,2.4,1.1v14.5c0,1.2-1.4,1.9-2.3,1.1l-4-3.4c-0.8-0.7-1.2-1.7-1.2-2.7V34.9z"/>
		
			<linearGradient id="SVGID_00000065762501922819150970000006473998879319355779_" gradientUnits="userSpaceOnUse" x1="30.5478" y1="72.1267" x2="30.5478" y2="58.2625" gradientTransform="matrix(1.2579 0 0 -1.2579 3.3522 119.4748)">
			<stop  offset="0" style="stop-color:#FFFFFF"/>
			<stop  offset="1" style="stop-color:#637ACA"/>
		</linearGradient>
		
			<path style="fill:none;stroke:url(#SVGID_00000065762501922819150970000006473998879319355779_);stroke-width:0.567;stroke-miterlimit:5.0314;" d="
			M39,33.1l4.3-3.8c0.8-0.7,1.9-0.1,1.9,0.9v14.5c0,1-1.2,1.5-1.9,0.9l-4-3.4c-0.7-0.6-1.2-1.5-1.2-2.5v-4.9
			C38.3,34.2,38.5,33.6,39,33.1z"/>
	</g>
</g>
<g>
	<path class="st5" d="M76.7,25.4v4.7h-5.9v19.5h-5.4V30.1h-5.9v-4.7H76.7z"/>
	<path class="st5" d="M93.3,45.3h-8.3l-1.3,4.3h-5.7L86,25.4h6.3l8.1,24.2h-5.7L93.3,45.3z M91.9,40.8l-2.8-8.9l-2.7,8.9H91.9z"/>
	<path class="st5" d="M117.6,33.1c-0.4-0.8-1-1.4-1.7-1.8c-0.8-0.4-1.6-0.6-2.6-0.6c-1.8,0-3.2,0.6-4.2,1.9c-1.1,1.3-1.6,2.9-1.6,5
		c0,2.2,0.6,4,1.7,5.2c1.1,1.3,2.6,1.9,4.6,1.9c1.3,0,2.5-0.4,3.4-1.1c0.9-0.7,1.6-1.8,2-3.2h-6.9V36h11.8v5.5
		c-0.4,1.5-1.1,2.8-2,4.1c-1,1.3-2.2,2.3-3.7,3.1c-1.5,0.8-3.2,1.2-5,1.2c-2.2,0-4.2-0.5-5.9-1.6c-1.7-1-3.1-2.5-4-4.4
		c-1-1.9-1.4-4-1.4-6.4c0-2.4,0.5-4.5,1.4-6.4c1-1.9,2.3-3.3,4-4.4c1.7-1,3.7-1.6,5.9-1.6c2.7,0,4.9,0.7,6.7,2.1
		c1.8,1.4,3,3.3,3.6,5.8H117.6z"/>
	<path class="st5" d="M132.3,25.4v14.5c0,1.4,0.3,2.6,1,3.3c0.7,0.8,1.6,1.2,2.9,1.2c1.3,0,2.2-0.4,2.9-1.2c0.7-0.8,1-1.9,1-3.3
		V25.4h5.4v14.4c0,2.2-0.4,4-1.3,5.5c-0.8,1.5-2,2.6-3.4,3.4s-3,1.1-4.8,1.1c-1.8,0-3.3-0.4-4.7-1.1c-1.4-0.7-2.5-1.9-3.3-3.4
		c-0.8-1.5-1.2-3.3-1.2-5.5V25.4H132.3z"/>
	<path class="st5" d="M154.7,30.1V35h7.3v4.5h-7.3v5.3h8.2v4.7h-13.6V25.4h13.6v4.7H154.7z"/>
	<path class="st5" d="M198.4,25.4v24.2H193V35.1l-5,14.5h-4.4l-5-14.5v14.5h-5.4V25.4h6.4l6.2,16.7l6.2-16.7H198.4z"/>
	<path class="st5" d="M207.7,30.1V35h7.3v4.5h-7.3v5.3h8.2v4.7h-13.6V25.4H216v4.7H207.7z"/>
	<path class="st5" d="M224.9,30.1V35h7.3v4.5h-7.3v5.3h8.2v4.7h-13.6V25.4h13.6v4.7H224.9z"/>
	<path class="st5" d="M252.7,25.4v4.7h-5.9v19.5h-5.4V30.1h-5.9v-4.7H252.7z"/>
</g>
</svg>
